HIERARCHY
ROOT RootJoint
{
    OFFSET   0.000000   0.000000   0.000000
    CHANNELS 6 Xposition Yposition Zposition Xrotation Yrotation Zrotation
    JOINT pelvis_lowerback
    {
        OFFSET   0.000000   0.093605   0.000000
        CHANNELS 3 Xrotation Yrotation Zrotation
        JOINT lowerback_torso
        {
            OFFSET   0.000000   0.100000   0.000000
            CHANNELS 3 Xrotation Yrotation Zrotation
            JOINT torso_head
            {
                OFFSET   0.000000   0.282350   0.000000
                CHANNELS 3 Xrotation Yrotation Zrotation
                End Site
                {
                    OFFSET   0.000000   0.192650   0.000000
                }
            }
            JOINT rTorso_Clavicle
            {
                OFFSET  -0.001000   0.157500   0.000000
                CHANNELS 3 Xrotation Yrotation Zrotation
                JOINT rShoulder
                {
                    OFFSET  -0.117647   0.000000   0.000000
                    CHANNELS 3 Xrotation Yrotation Zrotation
                    JOINT rElbow
                    {
                        OFFSET  -0.245000   0.000000   0.000000
                        CHANNELS 3 Xrotation Yrotation Zrotation
                        JOINT rWrist
                        {
                            OFFSET  -0.240000   0.000000   0.000000
                            CHANNELS 3 Xrotation Yrotation Zrotation
                            End Site
                            {
                                OFFSET  -0.116353  -0.002500   0.000000
                            }
                        }
                    }
                }
            }
            JOINT lTorso_Clavicle
            {
                OFFSET   0.001000   0.157500   0.000000
                CHANNELS 3 Xrotation Yrotation Zrotation
                JOINT lShoulder
                {
                    OFFSET   0.117647   0.000000   0.000000
                    CHANNELS 3 Xrotation Yrotation Zrotation
                    JOINT lElbow
                    {
                        OFFSET   0.245000   0.000000   0.000000
                        CHANNELS 3 Xrotation Yrotation Zrotation
                        JOINT lWrist
                        {
                            OFFSET   0.240000   0.000000   0.000000
                            CHANNELS 3 Xrotation Yrotation Zrotation
                            End Site
                            {
                                OFFSET   0.116353  -0.002500   0.000000
                            }
                        }
                    }
                }
            }
        }
    }
    JOINT rHip
    {
        OFFSET  -0.100000  -0.051395   0.000000
        CHANNELS 3 Xrotation Yrotation Zrotation
        JOINT rKnee
        {
            OFFSET   0.000000  -0.410000   0.000000
            CHANNELS 3 Xrotation Yrotation Zrotation
            JOINT rAnkle
            {
                OFFSET   0.000000  -0.390000   0.000000
                CHANNELS 3 Xrotation Yrotation Zrotation
                JOINT rToeJoint
                {
                    OFFSET   0.000000  -0.050000   0.130000
                    CHANNELS 3 Xrotation Yrotation Zrotation
                    End Site
                    {
                        OFFSET  -0.010000   0.002000   0.060000
                    }
                }
            }
        }
    }
    JOINT lHip
    {
        OFFSET   0.100000  -0.051395   0.000000
        CHANNELS 3 Xrotation Yrotation Zrotation
        JOINT lKnee
        {
            OFFSET   0.000000  -0.410000   0.000000
            CHANNELS 3 Xrotation Yrotation Zrotation
            JOINT lAnkle
            {
                OFFSET   0.000000  -0.390000   0.000000
                CHANNELS 3 Xrotation Yrotation Zrotation
                JOINT lToeJoint
                {
                    OFFSET   0.000000  -0.050000   0.130000
                    CHANNELS 3 Xrotation Yrotation Zrotation
                    End Site
                    {
                        OFFSET   0.010000   0.002000   0.060000
                    }
                }
            }
        }
    }
}
MOTION
Frames: 7
Frame Time:   0.008333
 -2.178359   0.896794   3.611004 -126.322507 -75.851181 -129.381417   9.721671  -0.564384  -2.585828   2.104930  -2.016956  -0.206973   0.100084  -1.972587   0.891751  -1.466544 -11.477360  -2.570850  -8.809193 -12.547751  55.958590 179.984672  68.727446 -179.986461  -0.892497   6.475288 -11.474598   0.860653  10.722822   3.573612  -9.589714   3.268736 -60.356848 179.996804 -66.623709 -179.997873  -1.338412  -6.104923  16.093665   2.177966  -5.610554 -12.458718  25.023910  -0.000244  -0.000612  -3.933393  -6.839879   4.649736 -15.330582   0.000049  -0.000609   9.984058   2.673702  13.323337  16.784559  -0.000312  -0.001415 -16.745402   3.370685   1.937036   2.133581  -0.000057  -0.000289
 -2.179144   0.896264   3.610609 -126.322406 -75.516356 -129.451863   9.555592  -0.645071  -2.589367   2.324837  -2.049994  -0.186595   0.264041  -1.981200   0.950840  -1.422405 -11.630516  -2.414963  -8.795017 -12.680336  56.055892 179.982421  69.056576 -179.984172  -0.968576   6.468052 -11.433382   0.902859  10.787682   3.470471  -9.787825   3.343928 -60.384874 179.996737 -66.961380 -179.998389  -1.411255  -6.048100  16.045155   2.380612  -5.461319 -12.411079  25.241911  -0.000245  -0.000630  -4.195005  -6.707703   4.543930 -15.228365   0.000088  -0.000415  10.286902   2.549685  13.321037  17.090283  -0.000444  -0.002041 -17.137341   3.260614   1.965038   2.144068  -0.000046  -0.000273
 -2.179873   0.895726   3.610204 -126.313606 -75.205493 -129.508735   9.408394  -0.725669  -2.589479   2.531556  -2.085759  -0.167830   0.420501  -1.989248   1.007058  -1.389455 -11.786268  -2.279593  -8.791895 -12.816502  56.134484 179.980908  69.371149 -179.982533  -1.045683   6.430380 -11.478682   0.935776  10.856333   3.376397  -9.978923   3.422638 -60.405879 179.996734 -67.278291 -179.998860  -1.479331  -5.993374  16.054042   2.567713  -5.313776 -12.365983  25.458174  -0.000238  -0.000615  -4.461931  -6.581858   4.448817 -15.116117   0.000115  -0.000246  10.558738   2.432498  13.320909  17.395211  -0.000548  -0.002467 -17.499687   3.158130   1.988707   2.148672  -0.000037  -0.000235
 -2.180565   0.895200   3.609789 -126.308252 -74.913769 -129.566778   9.274122  -0.803117  -2.585548   2.728368  -2.121479  -0.149190   0.568177  -1.996577   1.059959  -1.359615 -11.936833  -2.158430  -8.790795 -12.947593  56.202721 179.980181  69.666052 -179.981655  -1.121094   6.384964 -11.555228   0.966209  10.923249   3.289445 -10.157514   3.498498 -60.423795 179.996855 -67.574250 -179.999192  -1.544166  -5.941305  16.082156   2.742176  -5.173632 -12.321105  25.666144  -0.000230  -0.000590  -4.722623  -6.462308   4.363803 -15.002485   0.000128  -0.000115  10.813142   2.322480  13.323033  17.684047  -0.000620  -0.002715 -17.837792   3.062491   2.010287   2.153749  -0.000030  -0.000205
 -2.181222   0.894692   3.609368 -126.311641 -74.640474 -129.631649   9.150515  -0.876739  -2.578169   2.914765  -2.156034  -0.130012   0.706865  -2.003270   1.109747  -1.331626 -12.079725  -2.047630  -8.790090 -13.071617  56.264115 179.980080  69.941702 -179.981405  -1.193859   6.338870 -11.640466   0.995175  10.986826   3.208275 -10.323650   3.570156 -60.440031 179.997065 -67.850463 -179.999407  -1.606250  -5.891471  16.114158   2.903730  -5.041822 -12.276040  25.864150  -0.000223  -0.000561  -4.973730  -6.349554   4.287376 -14.889927   0.000132  -0.000017  11.052365   2.218916  13.326991  17.953951  -0.000664  -0.002827 -18.154419   2.973101   2.030405   2.158746  -0.000024  -0.000181
 -2.181847   0.894206   3.608945 -126.323691 -74.385140 -129.703131   9.036508  -0.946353  -2.567900   3.090722  -2.188959  -0.110127   0.836824  -2.009397   1.156595  -1.305283 -12.214083  -1.945169  -8.789449 -13.188104  56.320357 179.980450  70.199169 -179.981639  -1.263824   6.293991 -11.726786   1.022725  11.046457   3.132252 -10.478222   3.637302 -60.455131 179.997327 -68.108196 -179.999538  -1.665771  -5.843787  16.145390   3.052889  -4.918065 -12.231040  26.051701  -0.000216  -0.000529  -5.214163  -6.243422   4.218447 -14.779753   0.000129   0.000053  11.277201   2.121246  13.332342  18.204955  -0.000685  -0.002838 -18.451236   2.889521   2.049278   2.163457  -0.000020  -0.000159
 -2.182447   0.893750   3.608525 -126.296572 -74.157226 -129.733102   8.931342  -1.017706  -2.555060   3.257018  -2.224434  -0.089033   0.958588  -2.015231   1.200776  -1.279779 -12.341514  -1.849318  -8.788042 -13.298040  56.372254 179.981178  70.439699 -179.982248  -1.331058   6.250530 -11.813711   1.048432  11.100469   3.060622 -10.622584   3.699237 -60.469674 179.997591 -68.348821 -179.999634  -1.722988  -5.797834  16.171697   3.195794  -4.787939 -12.186120  26.231793  -0.000189  -0.000453  -5.437180  -6.128375   4.153695 -13.647615   0.000326   0.001124  11.483935   2.025833  13.342417  18.437865  -0.000683  -0.002748 -18.729399   2.810838   2.067691   2.167936  -0.000016  -0.000140
